<?xml version="1.0" encoding="utf-8"?>
<!-- Generator: Adobe Illustrator 25.4.1, SVG Export Plug-In . SVG Version: 6.00 Build 0)  -->
<svg version="1.1" id="Layer_1" xmlns="http://www.w3.org/2000/svg" xmlns:xlink="http://www.w3.org/1999/xlink" x="0px" y="0px"
	 viewBox="0 0 500 500" style="enable-background:new 0 0 500 500;" xml:space="preserve">
<style type="text/css">
	.st0{fill:#D1D3D4;}
	.st1{fill:#BE1E2D;}
	.st2{opacity:0.27;fill:#010101;enable-background:new    ;}
	.st3{fill:#010101;}
	.st4{fill:#D2D3D4;}
	.st5{fill:#E6E7E7;}
</style>
<ellipse class="st0" cx="421.5" cy="184.4" rx="43.4" ry="11.6"/>
<path class="st1" d="M437.7,188.9h-32.5c-8.3,0-15-6.7-15-15V105c0-8.3,6.7-15,15-15h32.5c8.3,0,15,6.7,15,15v68.9
	C452.7,182.2,446,188.9,437.7,188.9z"/>
<circle class="st2" cx="49.8" cy="366.4" r="19.4"/>
<g>
	<path class="st3" d="M52.7,339.2c-0.1,3.6-0.4,7.2-0.6,10.8c-0.2,3.6-0.5,7.2-0.8,10.8c-0.3,3.6-0.6,7.2-0.9,10.8l-0.5,5.4
		c-0.1,0.9-0.2,1.8-0.4,2.7c-0.2,0.9-0.5,1.8-0.9,2.6c-0.1,0.1-0.2,0.2-0.3,0.1c-0.1,0-0.1-0.1-0.1-0.1c-0.3-0.9-0.5-1.8-0.6-2.8
		c-0.1-0.9-0.1-1.8-0.1-2.7l0.2-5.4c0.1-3.6,0.3-7.2,0.5-10.8c0.2-3.6,0.4-7.2,0.7-10.8c0.3-3.6,0.5-7.2,0.9-10.8
		c0.1-0.8,0.8-1.4,1.6-1.4C52.2,337.7,52.8,338.4,52.7,339.2z"/>
</g>
<g>
	<g>
		<path class="st1" d="M45.7,374.1c15.2,6.7,33,5.5,49.2,3.9c16.2-1.6,32.2-4.9,47.6-10.1c30.4-10.3,58.3-27.9,79.2-52.4
			c19.9-23.3,33.4-51.9,37.2-82.3c1.9-15.2,2.6-33.1-7.2-46c-8.6-11.4-23-17.8-36.7-20.8c-27.3-6-58.6,1.1-77.7,22.3
			c-18,19.9-23.5,50.6-12.3,75.2c13.2,28.9,49.4,43.2,78.9,47.1c30.7,4,64-5.1,83.9-29.9c20.7-25.9,19.3-60.3,28.5-90.7
			c4.1-13.5,10.4-27.1,21.2-36.6c13.1-11.6,30.7-13.2,47.3-10.6c8.6,1.4,17,3.7,25.4,6.2c4.3,1.3,6.2-5.4,1.9-6.7
			c-27.2-8.2-59.1-14-81.5,8c-19.7,19.3-23.8,48.1-28.6,74c-2.8,15-6,30.2-13.7,43.5c-7.4,12.7-18.7,22.4-31.9,28.6
			c-29.5,14-64.9,8.6-93.2-5.8c-13-6.6-25-16-31.5-29.4c-5.6-11.7-6.7-25.3-4.2-37.9c5.6-27.7,28-46.8,55.4-51.3
			c26.5-4.4,65.7,4.7,69.5,36.2c3.5,28.8-7.1,59.7-22.2,83.7C197,345.1,135,372.1,73.9,372.1c-8.4,0-16.9-0.6-24.7-4
			C45.2,366.3,41.6,372.3,45.7,374.1L45.7,374.1z"/>
	</g>
</g>
<ellipse transform="matrix(0.2298 -0.9732 0.9732 0.2298 -306.5815 322.9125)" class="st4" cx="50.7" cy="355.1" rx="20.4" ry="20.4"/>
<ellipse transform="matrix(0.2182 -0.9759 0.9759 0.2182 -290.8328 315.1125)" class="st5" cx="51.2" cy="339.1" rx="20.4" ry="20.4"/>
<ellipse class="st0" cx="421.5" cy="94.3" rx="43.4" ry="6.9"/>
</svg>
