<?xml version="1.0" encoding="utf-8"?>
<!-- Generator: Adobe Illustrator 25.4.1, SVG Export Plug-In . SVG Version: 6.00 Build 0)  -->
<svg version="1.1" id="Layer_1" xmlns="http://www.w3.org/2000/svg" xmlns:xlink="http://www.w3.org/1999/xlink" x="0px" y="0px"
	 viewBox="0 0 500 500" style="enable-background:new 0 0 500 500;" xml:space="preserve">
<style type="text/css">
	.st0{fill:#D1D3D4;}
	.st1{fill:#BE1E2D;}
</style>
<ellipse class="st0" cx="284.3" cy="394.3" rx="43.4" ry="11.6"/>
<path class="st1" d="M300.5,398.8H268c-8.3,0-15-6.7-15-15v-68.9c0-8.3,6.7-15,15-15h32.5c8.3,0,15,6.7,15,15v68.9
	C315.5,392.1,308.8,398.8,300.5,398.8z"/>
<g>
	<g>
		<path class="st1" d="M261,359.6c4.5-0.1,3.5-7-0.9-6.9c-8.5,0.1-16.6-2.6-24.3-5.8c-56.4-23.5-103.3-72.2-113.7-133.7
			c-4.7-28-2.7-60.6,11.6-85.8c15.6-27.6,55.3-21,78.1-6.7c23.6,14.7,36.9,40.9,31.5,68.6c-2.5,12.6-8.8,24.7-18.4,33.4
			c-11.1,9.9-25.8,13.9-40.4,15.1c-31.7,2.4-66.4-6.2-88.3-30.4c-9.8-10.8-16.5-24.1-18.5-38.7c-2-15.2,0.9-30.5,4.1-45.4
			c5.5-25.8,12.8-53.9,2-79.3C71.4,15.1,39.8,8.2,11.5,5.3c-4.5-0.5-5.3,6.5-0.8,6.9c8.7,0.9,17.4,2,25.8,4
			c16.3,4,32,12.2,39.6,27.9c6.3,12.9,6.9,27.9,5.5,41.9c-3.2,31.6-17.7,62.8-8.5,94.7c8.9,30.5,36.1,51.7,66,59.8
			c28.7,7.7,67.7,8.4,90.9-13.2c19.8-18.4,26.5-48.9,17.5-74.2c-9.5-26.9-35.7-45.5-63.2-50.4c-13.8-2.5-29.6-2.1-41.9,5.1
			c-14,8.1-20.2,24.9-24.3,39.7c-8.2,29.5-6.7,61.1,2.8,90.3c9.9,30.6,28.9,57.6,53,78.8c12.2,10.7,25.7,19.9,40.1,27.6
			S244.4,360,261,359.6L261,359.6z"/>
	</g>
</g>
<ellipse class="st0" cx="284.3" cy="304.2" rx="43.4" ry="6.9"/>
</svg>
